<?xml version="1.0" encoding="iso-8859-1"?>
<!-- Uploaded to: SVG Repo, www.svgrepo.com, Transformed by: SVG Repo Mixer Tools -->
<!DOCTYPE svg PUBLIC "-//W3C//DTD SVG 1.1//EN" "http://www.w3.org/Graphics/SVG/1.1/DTD/svg11.dtd">
<svg fill="#000000" version="1.1" id="Capa_1" xmlns="http://www.w3.org/2000/svg" xmlns:xlink="http://www.w3.org/1999/xlink" 
	 width="800px" height="800px" viewBox="0 0 67.501 67.501"
	 xml:space="preserve">
<g>
	<g>
		<path d="M21.313,0h-6.546c-0.553,0-1,0.448-1,1v5.231c-4.538,1.755-7.541,6.086-7.541,11.007c0,6.514,5.3,11.813,11.813,11.813
			c6.515,0,11.814-5.299,11.814-11.813c0-4.922-3.003-9.252-7.541-11.007V1C22.313,0.448,21.864,0,21.313,0z M15.769,2h4.546v3.646
			c-0.068-0.013-0.136-0.018-0.204-0.03c-0.217-0.038-0.434-0.069-0.652-0.095c-0.135-0.016-0.269-0.035-0.404-0.046
			c-0.266-0.023-0.533-0.034-0.8-0.039c-0.071-0.001-0.142-0.01-0.213-0.01c-0.072,0-0.144,0.009-0.216,0.01
			c-0.266,0.005-0.531,0.016-0.795,0.038c-0.136,0.012-0.271,0.03-0.406,0.047c-0.218,0.026-0.434,0.057-0.65,0.095
			c-0.068,0.012-0.137,0.017-0.205,0.03L15.769,2L15.769,2z M18.041,27.051c-5.074,0-9.26-3.87-9.763-8.813h19.527
			C27.299,23.182,23.113,27.051,18.041,27.051z M27.797,16.239H8.281c0.39-3.869,3.016-7.156,6.788-8.354
			c1.924-0.611,4.017-0.61,5.94,0C24.781,9.083,27.406,12.37,27.797,16.239z"/>
		<path d="M3.104,62.131c-0.218,0.334-0.347,0.73-0.347,1.156c0,1.17,0.951,2.121,2.12,2.121c0.315,0,0.611-0.072,0.88-0.197
			c0.195-0.031,0.385-0.104,0.537-0.254l18.771-18.371c0.493,2.885,3.005,5.09,6.028,5.09c3.375,0,6.124-2.748,6.124-6.123
			s-2.747-6.123-6.124-6.123c-0.305,0-0.603,0.031-0.896,0.074l2.239-2.24c0.338,0.412,0.842,0.682,1.415,0.682
			c1.012,0,1.834-0.823,1.834-1.836c0-0.571-0.268-1.075-0.68-1.414l7.27-7.271c0.332,0.335,0.793,0.543,1.304,0.543
			c1.014,0,1.836-0.824,1.836-1.836c0-0.508-0.207-0.969-0.543-1.301l6.467-6.465c0.336,0.429,0.853,0.71,1.438,0.71
			c1.014,0,1.836-0.824,1.836-1.836c0-0.586-0.279-1.104-0.709-1.439l6.99-6.991v40.917c-1.078,0.406-1.851,1.439-1.851,2.658
			c0,1.221,0.771,2.254,1.851,2.658v7.053v0.961c0,1.351-1.099,2.445-2.445,2.445c-1.348,0-2.445-1.098-2.445-2.445v-1.994l0,0
			c0-0.131-0.027-0.26-0.078-0.383c-0.102-0.244-0.295-0.438-0.541-0.541c-0.244-0.102-0.52-0.102-0.764,0
			c-0.123,0.053-0.232,0.125-0.326,0.219l-2.225,2.224c-0.391,0.394-0.391,1.024,0,1.414c0.195,0.194,0.451,0.293,0.707,0.293
			s0.514-0.099,0.707-0.293l0.557-0.558c0.197,2.271,2.088,4.063,4.406,4.063c2.453,0,4.447-1.994,4.447-4.447v-0.959v-7.053
			c1.075-0.406,1.85-1.438,1.85-2.658c0-1.219-0.771-2.252-1.85-2.657V6.394c0-0.13-0.027-0.26-0.078-0.382
			c-0.103-0.245-0.295-0.44-0.541-0.541c-0.244-0.101-0.521-0.101-0.765,0c-0.122,0.051-0.231,0.124-0.325,0.217L25.314,41.561
			c-0.149-0.033-0.303-0.055-0.462-0.055c-0.431,0-0.832,0.131-1.167,0.354c-0.24,0.013-0.477,0.101-0.659,0.283L3.337,61.743
			C3.225,61.855,3.152,61.99,3.104,62.131z M33.688,36.109c0-0.09,0.073-0.164,0.164-0.164c0.092,0,0.164,0.074,0.164,0.164
			C34.015,36.289,33.688,36.289,33.688,36.109z M52.611,17.239c0-0.09,0.074-0.164,0.164-0.164c0.093,0,0.164,0.074,0.164,0.164
			C52.941,17.419,52.611,17.419,52.611,17.239z M35.217,45.553c0,2.271-1.85,4.123-4.124,4.123c-2.272,0-4.122-1.852-4.122-4.123
			c0-2.272,1.85-4.123,4.122-4.123C33.368,41.43,35.217,43.281,35.217,45.553z M43.743,26.131c0,0.135-0.183,0.168-0.275,0.102
			l0.222-0.221C43.722,26.042,43.743,26.083,43.743,26.131z M62.743,52.383c0,0.471-0.382,0.852-0.851,0.852s-0.85-0.381-0.85-0.852
			c0-0.348,0.209-0.645,0.508-0.775c0.104,0.039,0.221,0.068,0.342,0.068s0.234-0.029,0.342-0.068
			C62.534,51.738,62.743,52.035,62.743,52.383z"/>
	</g>
</g>
</svg>