<?xml version="1.0" encoding="iso-8859-1"?>
<!-- Uploaded to: SVG Repo, www.svgrepo.com, Transformed by: SVG Repo Mixer Tools -->
<svg fill="#000000" height="800px" width="800px" version="1.1" id="Layer_1" xmlns="http://www.w3.org/2000/svg" xmlns:xlink="http://www.w3.org/1999/xlink" 
	 viewBox="0 0 512.001 512.001" xml:space="preserve">
<g>
	<g>
		<path d="M510.999,443.086l-24.824-42.806h7.787c2.655,0,5.109-1.419,6.434-3.719c1.326-2.301,1.322-5.135-0.01-7.432
			l-26.269-45.301h5.856c2.655,0,5.109-1.419,6.434-3.719c1.326-2.301,1.322-5.135-0.01-7.432l-57.307-98.825
			c-1.329-2.29-3.776-3.7-6.423-3.7c-2.647,0-5.095,1.41-6.424,3.7l-21.38,36.869L263.725,41.107
			c-1.322-2.315-3.783-3.742-6.448-3.742s-5.127,1.428-6.448,3.742L121.331,267.85l-19.715-33.998c-1.329-2.29-3.776-3.7-6.423-3.7
			s-5.095,1.41-6.423,3.7l-57.308,98.826c-1.332,2.297-1.336,5.131-0.01,7.432c1.325,2.3,3.778,3.719,6.434,3.719h5.856
			L17.472,389.13c-1.332,2.297-1.336,5.131-0.01,7.432c1.326,2.3,3.778,3.719,6.434,3.719h7.785L6.858,443.086
			c-1.332,2.297-1.336,5.131-0.01,7.432c1.325,2.3,3.778,3.719,6.434,3.719h54.264v43.154c0,4.102,3.325,7.425,7.425,7.425h45.801
			c4.101,0,7.425-3.324,7.425-7.425v-43.154h48.465h0.44h53.824v43.154c0,4.102,3.325,7.425,7.425,7.425h45.801
			c4.101,0,7.425-3.324,7.425-7.425v-43.154h48.905c0.046,0,0.09-0.008,0.136-0.009c0.046,0.001,0.09,0.009,0.136,0.009h54.264
			v43.154c0,4.102,3.325,7.425,7.425,7.425h45.801c4.101,0,7.425-3.324,7.425-7.425v-43.154h48.905c2.655,0,5.109-1.419,6.434-3.719
			C512.335,448.218,512.331,445.383,510.999,443.086z M257.277,59.763l38.626,67.633L280.5,142.797l-19.818-17.445
			c-2.941-2.587-7.387-2.445-10.157,0.323l-16.797,16.798l-15.079-15.078L257.277,59.763z M113.346,489.965h-30.95v-35.728h30.95
			V489.965z M120.772,439.386H74.971h-48.8l24.823-42.806c1.333-2.297,1.337-5.131,0.011-7.432c-1.325-2.3-3.778-3.719-6.434-3.719
			h-7.787l26.269-45.301c1.332-2.297,1.336-5.131,0.01-7.432c-1.325-2.3-3.778-3.719-6.434-3.719h-5.855l44.418-76.598
			l44.418,76.598h-5.856c-2.655,0-5.109,1.419-6.434,3.719c-1.326,2.301-1.322,5.135,0.01,7.432l26.269,45.301h-7.787
			c-2.655,0-5.109,1.419-6.434,3.719c-1.326,2.301-1.322,5.135,0.01,7.432l24.823,42.806H120.772z M276.727,489.965h-30.95v-35.728
			h30.95V489.965z M284.153,439.386h-45.801h-48.8l24.823-42.806c1.333-2.297,1.337-5.131,0.011-7.432
			c-1.325-2.3-3.778-3.719-6.434-3.719h-7.787l26.269-45.301c1.332-2.297,1.336-5.131,0.01-7.432
			c-1.325-2.3-3.778-3.719-6.434-3.719h-5.855l44.418-76.598l44.418,76.598h-5.856c-2.655,0-5.109,1.419-6.434,3.719
			c-1.326,2.301-1.322,5.135,0.01,7.432l26.269,45.301h-7.784c-2.655,0-5.109,1.419-6.434,3.719
			c-1.326,2.301-1.322,5.135,0.01,7.432l24.823,42.806H284.153z M340.62,432.244l-18.535-31.964h7.787
			c2.655,0,5.109-1.419,6.434-3.719c1.326-2.301,1.322-5.135-0.01-7.432l-26.269-45.301h5.856c2.655,0,5.109-1.419,6.434-3.719
			c1.326-2.301,1.322-5.135-0.01-7.432l-57.307-98.825c-1.329-2.29-3.776-3.7-6.424-3.7c-2.647,0-5.095,1.41-6.423,3.7
			l-57.307,98.825c-1.332,2.297-1.336,5.131-0.01,7.432c1.325,2.3,3.778,3.719,6.434,3.719h5.856l-26.269,45.301
			c-1.332,2.297-1.336,5.131-0.01,7.432c1.326,2.3,3.778,3.719,6.434,3.719h7.787l-18.179,31.35l-18.179-31.35h7.787
			c2.655,0,5.109-1.419,6.434-3.719c1.326-2.301,1.322-5.135-0.01-7.432l-26.269-45.301h5.856c2.655,0,5.109-1.419,6.434-3.719
			c1.326-2.301,1.322-5.135-0.01-7.432l-28.976-49.968l81.058-141.946l17.463,17.463c2.9,2.899,7.602,2.899,10.5,0l17.121-17.122
			l19.818,17.445c1.407,1.238,3.157,1.851,4.905,1.851c1.906,0,3.807-0.73,5.252-2.174l17.463-17.463l82.707,144.816l-27.312,47.098
			c-1.332,2.297-1.336,5.131-0.01,7.432c1.325,2.3,3.778,3.719,6.434,3.719h5.856l-26.269,45.301
			c-1.332,2.297-1.336,5.131-0.01,7.432c1.325,2.3,3.778,3.719,6.434,3.719h7.787L340.62,432.244z M440.82,489.965h-30.95v-35.728
			h30.95V489.965z M448.245,439.386h-45.801h-48.8l24.823-42.806c1.332-2.297,1.336-5.131,0.01-7.432
			c-1.325-2.3-3.778-3.719-6.434-3.719h-7.787l26.269-45.301c1.332-2.297,1.336-5.131,0.01-7.432
			c-1.325-2.3-3.778-3.719-6.434-3.719h-5.856l44.418-76.598l44.418,76.598h-5.855c-2.655,0-5.109,1.419-6.434,3.719
			c-1.326,2.301-1.322,5.135,0.01,7.432l26.269,45.301h-7.787c-2.655,0-5.109,1.419-6.434,3.719
			c-1.326,2.301-1.322,5.135,0.011,7.432l24.823,42.806H448.245z"/>
	</g>
</g>
<g>
	<g>
		<path d="M234.576,217.598c-2.9-2.899-7.602-2.899-10.501,0L209.6,232.075l-14.923-14.923c-2.9-2.899-7.602-2.899-10.5,0
			c-2.9,2.901-2.9,7.602,0,10.501l20.173,20.173c1.392,1.392,3.281,2.174,5.25,2.174c1.969,0,3.858-0.782,5.25-2.174l19.726-19.727
			C237.476,225.199,237.476,220.498,234.576,217.598z"/>
	</g>
</g>
<g>
	<g>
		<path d="M329.302,217.598c-2.9-2.899-7.602-2.899-10.5,0l-14.476,14.477l-14.923-14.923c-2.9-2.899-7.602-2.899-10.501,0
			c-2.9,2.901-2.9,7.602,0,10.501l20.173,20.173c1.392,1.392,3.281,2.174,5.25,2.174s3.858-0.782,5.25-2.174l19.726-19.727
			C332.202,225.199,332.202,220.498,329.302,217.598z"/>
	</g>
</g>
<g>
	<g>
		<path d="M169.79,62.955c-1.855,0-3.707,0.202-5.516,0.596c-2.197-2.729-4.835-5.079-7.804-6.945
			c-2.254-27.628-25.46-49.422-53.659-49.422c-22.461,0-42.587,14.148-50.396,34.902C41.91,45.325,33.358,53.114,29.094,63.143
			c-1.034-0.125-2.082-0.186-3.139-0.186C11.642,62.955,0,74.598,0,88.909c0,14.31,11.642,25.953,25.953,25.953H169.79
			c14.311,0,25.953-11.643,25.953-25.953S184.102,62.955,169.79,62.955z M169.788,100.011H25.953
			c-6.122,0-11.102-4.98-11.102-11.102s4.981-11.102,11.102-11.102c1.705,0,3.338,0.375,4.855,1.116
			c2.087,1.017,4.531,1.001,6.604-0.047c2.073-1.047,3.536-3.004,3.955-5.289c1.674-9.132,8.943-16.346,18.088-17.951
			c2.805-0.492,5.081-2.544,5.859-5.285c4.734-16.672,20.154-28.317,37.496-28.317c21.469,0,38.941,17.442,38.987,38.9
			c-0.002,0.078-0.003,0.165-0.003,0.225c0,2.967,1.766,5.65,4.493,6.822c3.597,1.546,6.554,4.33,8.324,7.836
			c0.895,1.772,2.463,3.114,4.353,3.722s3.945,0.434,5.707-0.484c1.59-0.829,3.312-1.249,5.116-1.249
			c6.122,0,11.102,4.98,11.102,11.102S175.91,100.011,169.788,100.011z"/>
	</g>
</g>
<g>
	<g>
		<path d="M478.209,62.955c-1.855,0-3.707,0.202-5.515,0.596c-2.197-2.729-4.835-5.078-7.804-6.945
			c-2.254-27.626-25.46-49.422-53.66-49.422c-22.461,0-42.587,14.148-50.396,34.902c-10.505,3.237-19.059,11.028-23.323,21.056
			c-1.035-0.125-2.082-0.186-3.139-0.186c-14.311,0-25.953,11.643-25.953,25.953s11.642,25.952,25.953,25.952h143.836
			c14.311,0,25.953-11.643,25.953-25.953S492.521,62.955,478.209,62.955z M478.209,100.01H334.373
			c-6.122,0-11.102-4.98-11.102-11.102s4.981-11.101,11.102-11.101c1.705,0,3.339,0.375,4.855,1.116
			c2.087,1.017,4.53,1.001,6.604-0.047c2.073-1.047,3.536-3.004,3.955-5.289c1.674-9.132,8.943-16.346,18.088-17.951
			c2.805-0.492,5.081-2.544,5.859-5.285c4.734-16.672,20.154-28.317,37.496-28.317c21.465,0,38.935,17.437,38.988,38.889
			c-0.002,0.057-0.003,0.116-0.003,0.155c-0.032,2.996,1.74,5.718,4.493,6.902c3.597,1.546,6.553,4.328,8.324,7.836
			c0.895,1.772,2.463,3.113,4.353,3.722c1.89,0.608,3.945,0.434,5.707-0.483c1.591-0.83,3.313-1.25,5.116-1.25
			c6.122,0,11.102,4.98,11.102,11.102S484.331,100.01,478.209,100.01z"/>
	</g>
</g>
</svg>