<?xml version="1.0" encoding="iso-8859-1"?>
<!-- Uploaded to: SVG Repo, www.svgrepo.com, Transformed by: SVG Repo Mixer Tools -->
<svg fill="#000000" height="800px" width="800px" version="1.1" id="Layer_1" xmlns="http://www.w3.org/2000/svg" xmlns:xlink="http://www.w3.org/1999/xlink" 
	 viewBox="0 0 511.999 511.999" xml:space="preserve">
<g>
	<g>
		<path d="M503.828,348.595H8.171c-4.513,0-8.17,3.658-8.17,8.17c0,4.512,3.657,8.17,8.17,8.17h495.657
			c4.513,0,8.17-3.658,8.17-8.17C511.999,352.253,508.341,348.595,503.828,348.595z"/>
	</g>
</g>
<g>
	<g>
		<path d="M503.828,381.275H8.171c-4.513,0-8.17,3.658-8.17,8.17c0,4.512,3.657,8.17,8.17,8.17h495.657
			c4.513,0,8.17-3.658,8.17-8.17C511.999,384.933,508.341,381.275,503.828,381.275z"/>
	</g>
</g>
<g>
	<g>
		<path d="M416.68,413.956H8.171c-4.513,0-8.17,3.658-8.17,8.17c0,4.512,3.657,8.17,8.17,8.17H416.68c4.512,0,8.17-3.658,8.17-8.17
			C424.85,417.614,421.193,413.956,416.68,413.956z"/>
	</g>
</g>
<g>
	<g>
		<path d="M503.828,446.637H226.042c-4.513,0-8.17,3.658-8.17,8.17c0,4.512,3.657,8.17,8.17,8.17h277.786
			c4.513,0,8.17-3.658,8.17-8.17C511.999,450.295,508.341,446.637,503.828,446.637z"/>
	</g>
</g>
<g>
	<g>
		<path d="M193.362,446.637H95.32c-4.513,0-8.17,3.658-8.17,8.17c0,4.512,3.657,8.17,8.17,8.17h98.042c4.513,0,8.17-3.658,8.17-8.17
			C201.532,450.295,197.874,446.637,193.362,446.637z"/>
	</g>
</g>
<g>
	<g>
		<path d="M503.828,479.317h-98.042c-4.513,0-8.17,3.658-8.17,8.17c0,4.512,3.657,8.17,8.17,8.17h98.042
			c4.513,0,8.17-3.658,8.17-8.17C511.999,482.976,508.341,479.317,503.828,479.317z"/>
	</g>
</g>
<g>
	<g>
		<path d="M419.116,241.837c-3.19-3.191-8.363-3.19-11.555,0l-8.959,8.959l-32.35-32.35c-3.192-3.191-8.364-3.191-11.555,0
			l-32.35,32.351l-8.962-8.961c-3.189-3.191-8.362-3.192-11.554,0c-3.191,3.191-3.191,8.364,0.001,11.554l14.738,14.738
			c1.595,1.596,3.686,2.393,5.777,2.393c2.09,0,4.182-0.797,5.778-2.393l32.349-32.351l32.35,32.351
			c1.533,1.533,3.61,2.393,5.778,2.393c2.168,0,4.244-0.861,5.778-2.393l14.736-14.737
			C422.307,250.2,422.307,245.026,419.116,241.837z"/>
	</g>
</g>
<g>
	<g>
		<path d="M210.165,241.84c-3.192-3.191-8.364-3.191-11.555,0l-8.96,8.96l-32.35-32.351c-3.192-3.191-8.364-3.191-11.555,0
			l-32.35,32.35l-8.96-8.96c-3.191-3.191-8.364-3.192-11.554,0c-3.192,3.191-3.192,8.363-0.001,11.554l14.737,14.738
			c1.533,1.533,3.61,2.393,5.778,2.393c2.168,0,4.244-0.861,5.778-2.393l32.35-32.351l32.35,32.351
			c3.192,3.191,8.364,3.191,11.555,0l14.737-14.737C213.355,250.204,213.355,245.031,210.165,241.84z"/>
	</g>
</g>
<g>
	<g>
		<path d="M510.617,319.539L367.266,105.298c-1.518-2.267-4.063-3.626-6.79-3.626c-2.727,0-5.275,1.361-6.79,3.626l-97.687,145.993
			l-97.686-145.99c-1.517-2.266-4.063-3.627-6.79-3.627s-5.275,1.361-6.79,3.627L1.381,319.54c-2.51,3.751-1.503,8.825,2.246,11.334
			c1.395,0.934,2.974,1.381,4.536,1.381c2.635,0,5.222-1.272,6.798-3.628l136.561-204.092l94.644,141.446l-35.836,53.555
			c-2.51,3.75-1.503,8.825,2.247,11.334c3.751,2.509,8.825,1.503,11.334-2.247l38.836-58.039c0.045-0.065,0.089-0.13,0.131-0.196
			l97.596-145.857l136.563,204.095c1.575,2.355,4.162,3.628,6.798,3.628c1.562,0,3.141-0.448,4.536-1.381
			C512.119,328.363,513.126,323.29,510.617,319.539z"/>
	</g>
</g>
<g>
	<g>
		<path d="M256,16.341c-31.535,0-57.191,25.655-57.191,57.191c0,31.536,25.656,57.191,57.191,57.191s57.191-25.655,57.191-57.191
			C313.191,41.996,287.534,16.341,256,16.341z M256,114.383c-22.526,0-40.851-18.325-40.851-40.851
			c0-22.526,18.325-40.851,40.851-40.851c22.526,0,40.851,18.325,40.851,40.851C296.851,96.058,278.525,114.383,256,114.383z"/>
	</g>
</g>
</svg>