<?xml version="1.0" encoding="iso-8859-1"?>
<!-- Uploaded to: SVG Repo, www.svgrepo.com, Generator: SVG Repo Mixer Tools -->
<svg fill="#000000" height="800px" width="800px" version="1.1" id="Layer_1" xmlns="http://www.w3.org/2000/svg" xmlns:xlink="http://www.w3.org/1999/xlink" 
	 viewBox="0 0 512 512" xml:space="preserve">
<g>
	<g>
		<path d="M462.662,0H49.339C22.133,0,0,22.133,0,49.339v328.305c0,5.131,4.159,9.291,9.291,9.291c5.132,0,9.291-4.16,9.291-9.291
			V49.339c0-16.96,13.799-30.757,30.757-30.757h413.323c16.959,0,30.757,13.797,30.757,30.757v413.323
			c0,16.96-13.799,30.757-30.757,30.757H49.339c-16.959,0-30.757-13.797-30.757-30.757v-52.932c0-5.131-4.159-9.291-9.291-9.291
			c-5.132,0-9.291,4.16-9.291,9.291v52.932C0,489.867,22.133,512,49.339,512h413.323C489.867,512,512,489.867,512,462.661V49.339
			C512,22.133,489.867,0,462.662,0z"/>
	</g>
</g>
<g>
	<g>
		<path d="M451.371,51.338h-67.024c-5.132,0-9.291,4.16-9.291,9.291c0,5.131,4.159,9.291,9.291,9.291h57.734v372.161H69.919V69.919
			h282.34c5.132,0,9.291-4.16,9.291-9.291c0-5.131-4.159-9.291-9.291-9.291H60.629c-5.132,0-9.291,4.16-9.291,9.291v390.743
			c0,5.131,4.159,9.291,9.291,9.291h390.743c5.132,0,9.291-4.16,9.291-9.291V60.629C460.662,55.498,456.504,51.338,451.371,51.338z"
			/>
	</g>
</g>
<g>
	<g>
		<path d="M263.758,101.037h-79.63c-5.132,0-9.291,4.16-9.291,9.291V317.32c0,5.131,4.159,9.291,9.291,9.291
			c5.132,0,9.291-4.16,9.291-9.291V119.618h70.339c52.133,0,94.547,42.414,94.547,94.547c0,52.133-42.414,94.547-94.547,94.547
			h-15.062c-5.132,0-9.291,4.16-9.291,9.291v74.379h-45.986v-42.975c0-5.131-4.16-9.291-9.291-9.291
			c-5.132,0-9.291,4.16-9.291,9.291v52.266c0,5.131,4.159,9.291,9.291,9.291h64.568c5.132,0,9.291-4.16,9.291-9.291v-74.379h5.771
			c62.379,0,113.128-50.749,113.128-113.128S326.137,101.037,263.758,101.037z"/>
	</g>
</g>
<g>
	<g>
		<path d="M260.608,157.731h-11.912c-5.132,0-9.291,4.16-9.291,9.291v94.287c0,5.131,4.159,9.291,9.291,9.291h11.912
			c31.118,0,56.435-25.317,56.435-56.434C317.043,183.048,291.725,157.731,260.608,157.731z M260.608,252.018h-2.621v-75.706h2.621
			c20.873,0,37.854,16.981,37.854,37.853C298.462,235.037,281.481,252.018,260.608,252.018z"/>
	</g>
</g>
</svg>