<?xml version="1.0" encoding="iso-8859-1"?>
<!-- Uploaded to: SVG Repo, www.svgrepo.com, Transformed by: SVG Repo Mixer Tools -->
<svg fill="#000000" height="800px" width="800px" version="1.1" id="Layer_1" xmlns="http://www.w3.org/2000/svg" xmlns:xlink="http://www.w3.org/1999/xlink" 
	 viewBox="0 0 512 512" xml:space="preserve">
<g>
	<g>
		<path d="M507.647,268.178l-49.991-23.447l-29.694-47.03h37.212c2.574,0,4.971-1.309,6.363-3.473
			c1.392-2.164,1.587-4.888,0.519-7.229l-38.239-83.828c-1.229-2.696-3.919-4.425-6.881-4.425H44.973
			c-3.353,0-6.306,2.207-7.254,5.424L0.348,230.842c-0.006,0.019-0.011,0.039-0.017,0.058l-0.021,0.071
			c-0.006,0.021-0.008,0.043-0.014,0.065c-0.084,0.296-0.148,0.599-0.197,0.909c-0.011,0.073-0.024,0.143-0.033,0.216
			C0.027,232.474,0,232.79,0,233.113c0,0.015,0.002,0.03,0.002,0.045c0,0.046,0.006,0.092,0.007,0.138
			c0.007,0.301,0.033,0.596,0.075,0.887c0.01,0.074,0.021,0.147,0.033,0.221c0.06,0.344,0.136,0.681,0.24,1.007l25.157,79.289H8.494
			c-4.178,0-7.564,3.386-7.564,7.564v37.654c0,4.178,3.386,7.564,7.564,7.564h60.944c3.686,25.84,25.95,45.775,52.792,45.775
			c26.843,0,49.108-19.934,52.793-45.775h169.185h30.282c3.686,25.84,25.95,45.775,52.793,45.775
			c26.842,0,49.107-19.934,52.792-45.775h24.362c4.178,0,7.564-3.386,7.564-7.564v-84.89
			C512,272.092,510.304,269.423,507.647,268.178z M438.72,243.075h-86.948v-45.374h58.3L438.72,243.075z M69.438,352.352h-53.38
			v-22.526h62.161C73.694,336.423,70.617,344.085,69.438,352.352z M122.229,398.127c-21.07,0-38.211-17.141-38.211-38.211
			c0-21.07,17.141-38.212,38.211-38.212c21.07,0,38.212,17.142,38.212,38.212C160.441,380.986,143.299,398.127,122.229,398.127z
			 M151.034,314.698c-0.175,0-0.348,0.014-0.52,0.026c-8.205-5.154-17.899-8.148-28.284-8.148c-10.367,0-20.045,2.983-28.242,8.122
			H41.384l-23.484-74.021h184.064v74.021H151.034z M336.644,352.352h-161.62c-1.179-8.267-4.256-15.927-8.781-22.526h43.285h94.77
			h32.347V352.352z M296.733,240.677v74.021h-79.642v-74.021H296.733z M217.091,225.549v-67.008h79.642v67.008H217.091z
			 M336.644,314.698H311.86v-74.021h24.783V314.698z M336.644,190.137v35.411H311.86v-74.572c0-4.178-3.386-7.564-7.564-7.564
			h-94.77c-4.178,0-7.564,3.386-7.564,7.564v74.572H17.681l32.946-111.675h371.445l31.338,68.7h-39.169h-70.034
			C340.029,182.573,336.644,185.958,336.644,190.137z M427.282,398.127c-21.065,0-38.204-17.134-38.211-38.198
			c0-0.004,0.001-0.009,0.001-0.013l-0.001-0.013c0.007-21.063,17.146-38.199,38.211-38.199c21.07,0,38.211,17.142,38.211,38.212
			C465.493,380.986,448.351,398.127,427.282,398.127z M496.871,352.352h-16.797c-3.686-25.841-25.95-45.776-52.792-45.776
			c-26.843,0-49.108,19.934-52.793,45.776h-22.718v-30.09v-64.059h98.984l14.737,6.912v34.381c0,4.178,3.386,7.564,7.564,7.564
			h23.815V352.352z M496.872,291.932h-16.251v-19.722l16.251,7.622V291.932z"/>
	</g>
</g>
<g>
	<g>
		<path d="M169.615,143.413H74.846c-4.178,0-7.564,3.386-7.564,7.564v53.895c0,4.177,3.386,7.564,7.564,7.564h94.769
			c4.178,0,7.564-3.386,7.564-7.564v-53.895C177.179,146.799,173.793,143.413,169.615,143.413z M113.744,197.307H82.41V158.54
			h31.334V197.307z M162.051,197.308h-33.178v-38.767h33.178V197.308z"/>
	</g>
</g>
<g>
	<g>
		<path d="M427.282,332.76c-14.974,0-27.155,12.182-27.155,27.155c0,14.974,12.182,27.154,27.155,27.154
			c14.973,0,27.154-12.181,27.154-27.154C454.437,344.942,442.256,332.76,427.282,332.76z M427.282,371.942
			c-6.632,0-12.028-5.396-12.028-12.027c0-6.632,5.396-12.028,12.028-12.028c6.631,0,12.027,5.396,12.027,12.028
			C439.309,366.547,433.913,371.942,427.282,371.942z"/>
	</g>
</g>
<g>
	<g>
		<path d="M122.229,332.76c-14.973,0-27.154,12.182-27.154,27.155c0,14.974,12.181,27.154,27.154,27.154
			c14.974,0,27.155-12.181,27.155-27.154C149.385,344.942,137.203,332.76,122.229,332.76z M122.229,371.942
			c-6.631,0-12.027-5.396-12.027-12.027c0-6.632,5.396-12.028,12.027-12.028c6.632,0,12.028,5.396,12.028,12.028
			C134.257,366.547,128.862,371.942,122.229,371.942z"/>
	</g>
</g>
</svg>