<?xml version="1.0" encoding="utf-8"?>
<!-- Uploaded to: SVG Repo, www.svgrepo.com, Generator: SVG Repo Mixer Tools -->
<svg version="1.1" id="Uploaded to svgrepo.com" xmlns="http://www.w3.org/2000/svg" xmlns:xlink="http://www.w3.org/1999/xlink" 
	 width="800px" height="800px" viewBox="0 0 32 32" xml:space="preserve">
<style type="text/css">
	.open_een{fill:#0B1719;}
</style>
<g>
	<g>
		<path class="open_een" d="M22.5,30h-13C8.673,30,8,29.327,8,28.5v-7C8,21.224,8.224,21,8.5,21S9,21.224,9,21.5v7
			C9,28.776,9.224,29,9.5,29h13c0.276,0,0.5-0.224,0.5-0.5v-25C23,3.224,22.776,3,22.5,3h-13C9.224,3,9,3.224,9,3.5V18h2.086
			c0.207-0.582,0.763-1,1.415-1h4c0.827,0,1.5,0.673,1.5,1.5v7c0,0.827-0.673,1.5-1.5,1.5h-4c-0.827,0-1.5-0.673-1.5-1.5l0-4
			c0-0.276,0.224-0.5,0.5-0.5c0.276,0,0.5,0.224,0.5,0.5l0,4c0,0.276,0.224,0.5,0.5,0.5h4c0.276,0,0.5-0.224,0.5-0.5v-7
			c0-0.276-0.224-0.5-0.5-0.5h-4c-0.276,0-0.5,0.224-0.5,0.5c0,0.276-0.224,0.5-0.5,0.5h-3C8.224,19,8,18.776,8,18.5v-15
			C8,2.673,8.673,2,9.5,2h13C23.327,2,24,2.673,24,3.5v25C24,29.327,23.327,30,22.5,30z"/>
		<path class="open_een" d="M16.5,12c-0.276,0-0.5-0.224-0.5-0.5v-2C16,9.224,16.224,9,16.5,9S17,9.224,17,9.5v2
			C17,11.776,16.776,12,16.5,12z"/>
		<path class="open_een" d="M18.5,12c-0.276,0-0.5-0.224-0.5-0.5v-2C18,9.224,18.224,9,18.5,9S19,9.224,19,9.5v2
			C19,11.776,18.776,12,18.5,12z"/>
		<path class="open_een" d="M20.5,27c-0.276,0-0.5-0.224-0.5-0.5v-19C20,6.673,19.327,6,18.5,6c-0.652,0-1.208,0.418-1.415,1H18.5
			C18.776,7,19,7.224,19,7.5S18.776,8,18.5,8h-2C16.224,8,16,7.776,16,7.5C16,6.122,17.122,5,18.5,5S21,6.122,21,7.5v19
			C21,26.776,20.776,27,20.5,27z"/>
	</g>
	<g>
		<path class="open_een" d="M22.5,30h-13C8.673,30,8,29.327,8,28.5v-7C8,21.224,8.224,21,8.5,21S9,21.224,9,21.5v7
			C9,28.776,9.224,29,9.5,29h13c0.276,0,0.5-0.224,0.5-0.5v-25C23,3.224,22.776,3,22.5,3h-13C9.224,3,9,3.224,9,3.5V18h2.086
			c0.207-0.582,0.763-1,1.415-1h4c0.827,0,1.5,0.673,1.5,1.5v7c0,0.827-0.673,1.5-1.5,1.5h-4c-0.827,0-1.5-0.673-1.5-1.5l0-4
			c0-0.276,0.224-0.5,0.5-0.5c0.276,0,0.5,0.224,0.5,0.5l0,4c0,0.276,0.224,0.5,0.5,0.5h4c0.276,0,0.5-0.224,0.5-0.5v-7
			c0-0.276-0.224-0.5-0.5-0.5h-4c-0.276,0-0.5,0.224-0.5,0.5c0,0.276-0.224,0.5-0.5,0.5h-3C8.224,19,8,18.776,8,18.5v-15
			C8,2.673,8.673,2,9.5,2h13C23.327,2,24,2.673,24,3.5v25C24,29.327,23.327,30,22.5,30z"/>
		<path class="open_een" d="M16.5,12c-0.276,0-0.5-0.224-0.5-0.5v-2C16,9.224,16.224,9,16.5,9S17,9.224,17,9.5v2
			C17,11.776,16.776,12,16.5,12z"/>
		<path class="open_een" d="M18.5,12c-0.276,0-0.5-0.224-0.5-0.5v-2C18,9.224,18.224,9,18.5,9S19,9.224,19,9.5v2
			C19,11.776,18.776,12,18.5,12z"/>
		<path class="open_een" d="M20.5,27c-0.276,0-0.5-0.224-0.5-0.5v-19C20,6.673,19.327,6,18.5,6c-0.652,0-1.208,0.418-1.415,1H18.5
			C18.776,7,19,7.224,19,7.5S18.776,8,18.5,8h-2C16.224,8,16,7.776,16,7.5C16,6.122,17.122,5,18.5,5S21,6.122,21,7.5v19
			C21,26.776,20.776,27,20.5,27z"/>
	</g>
</g>
</svg>