<?xml version="1.0" encoding="utf-8"?>
<!-- Uploaded to: SVG Repo, www.svgrepo.com, Generator: SVG Repo Mixer Tools -->
<svg version="1.1" id="Uploaded to svgrepo.com" xmlns="http://www.w3.org/2000/svg" xmlns:xlink="http://www.w3.org/1999/xlink" 
	 width="800px" height="800px" viewBox="0 0 32 32" xml:space="preserve">
<style type="text/css">
	.open_een{fill:#0B1719;}
</style>
<g>
	<g>
		<path class="open_een" d="M25.5,30h-19C5.673,30,5,29.327,5,28.5v-19C5,8.673,5.673,8,6.5,8h17C23.776,8,24,8.224,24,8.5
			S23.776,9,23.5,9h-17C6.225,9,6,9.225,6,9.5v19C6,28.775,6.225,29,6.5,29h19c0.275,0,0.5-0.225,0.5-0.5v-25
			C26,3.225,25.775,3,25.5,3h-19C6.225,3,6,3.225,6,3.5v1C6,4.775,6.225,5,6.5,5h1.627C8.514,5,8.881,5.146,9.16,5.413l0.473,0.449
			C9.728,5.951,9.85,6,9.979,6h3.531c0.124,0,0.243-0.046,0.335-0.13l0.82-0.741c0.202-0.183,0.52-0.17,0.706,0.036
			c0.185,0.204,0.169,0.521-0.036,0.706l-0.819,0.741C14.239,6.862,13.882,7,13.51,7H9.979C9.593,7,9.226,6.854,8.945,6.588
			l-0.474-0.45C8.378,6.049,8.256,6,8.127,6H6.5C5.673,6,5,5.327,5,4.5v-1C5,2.673,5.673,2,6.5,2h19C26.327,2,27,2.673,27,3.5v25
			C27,29.327,26.327,30,25.5,30z"/>
		<circle class="open_een" cx="23.5" cy="5.5" r="0.5"/>
		<circle class="open_een" cx="20.5" cy="5.5" r="0.5"/>
		<path class="open_een" d="M16,27c-4.411,0-8-3.589-8-8s3.589-8,8-8s8,3.589,8,8S20.411,27,16,27z M16,12c-3.859,0-7,3.141-7,7
			s3.141,7,7,7s7-3.141,7-7S19.859,12,16,12z"/>
		<path class="open_een" d="M16,24c-2.757,0-5-2.243-5-5s2.243-5,5-5s5,2.243,5,5S18.757,24,16,24z M16,15c-2.206,0-4,1.794-4,4
			s1.794,4,4,4s4-1.794,4-4S18.206,15,16,15z"/>
	</g>
	<g>
		<path class="open_een" d="M25.5,30h-19C5.673,30,5,29.327,5,28.5v-19C5,8.673,5.673,8,6.5,8h17C23.776,8,24,8.224,24,8.5
			S23.776,9,23.5,9h-17C6.225,9,6,9.225,6,9.5v19C6,28.775,6.225,29,6.5,29h19c0.275,0,0.5-0.225,0.5-0.5v-25
			C26,3.225,25.775,3,25.5,3h-19C6.225,3,6,3.225,6,3.5v1C6,4.775,6.225,5,6.5,5h1.627C8.514,5,8.881,5.146,9.16,5.413l0.473,0.449
			C9.728,5.951,9.85,6,9.979,6h3.531c0.124,0,0.243-0.046,0.335-0.13l0.82-0.741c0.202-0.183,0.52-0.17,0.706,0.036
			c0.185,0.204,0.169,0.521-0.036,0.706l-0.819,0.741C14.239,6.862,13.882,7,13.51,7H9.979C9.593,7,9.226,6.854,8.945,6.588
			l-0.474-0.45C8.378,6.049,8.256,6,8.127,6H6.5C5.673,6,5,5.327,5,4.5v-1C5,2.673,5.673,2,6.5,2h19C26.327,2,27,2.673,27,3.5v25
			C27,29.327,26.327,30,25.5,30z"/>
		<circle class="open_een" cx="23.5" cy="5.5" r="0.5"/>
		<circle class="open_een" cx="20.5" cy="5.5" r="0.5"/>
		<path class="open_een" d="M16,27c-4.411,0-8-3.589-8-8s3.589-8,8-8s8,3.589,8,8S20.411,27,16,27z M16,12c-3.859,0-7,3.141-7,7
			s3.141,7,7,7s7-3.141,7-7S19.859,12,16,12z"/>
		<path class="open_een" d="M16,24c-2.757,0-5-2.243-5-5s2.243-5,5-5s5,2.243,5,5S18.757,24,16,24z M16,15c-2.206,0-4,1.794-4,4
			s1.794,4,4,4s4-1.794,4-4S18.206,15,16,15z"/>
	</g>
</g>
</svg>