<?xml version="1.0" ?>
<!-- Uploaded to: SVG Repo, www.svgrepo.com, Generator: SVG Repo Mixer Tools -->
<svg fill="#000000" width="800px" height="800px" viewBox="0 0 100 100" xmlns="http://www.w3.org/2000/svg">
<defs>
<style>.cls-1{fill:none;}</style>
</defs>
<title/>
<g data-name="Calque 2" id="Calque_2">
<path class="cls-1" d="M50.72,30.15H42.39V95.25H55.66a1.68,1.68,0,0,0,1.45-.8,1.7,1.7,0,0,0,.11-1.65L55.6,89.31a52.58,52.58,0,0,1-4.88-22Z"/>
<rect class="cls-1" height="2" width="8.33" x="42.39" y="5.17"/>
<path d="M58.05,30.17l19.17,4.38V2.79L58.05,7.17H53.72V3.67a1.5,1.5,0,0,0-1.5-1.5H40.89a1.5,1.5,0,0,0-1.5,1.5v3.5H33.47v23h5.92V96.75a1.5,1.5,0,0,0,1.5,1.5H55.66a4.72,4.72,0,0,0,4.28-6.72L58.32,88a49.49,49.49,0,0,1-4.6-20.76V30.16Zm-15.66-25h8.33v2H42.39ZM55.6,89.31l1.62,3.49a1.7,1.7,0,0,1-.11,1.65,1.68,1.68,0,0,1-1.45.8H42.39V30.14h8.33V67.28A52.58,52.58,0,0,0,55.6,89.31ZM36.47,27.13v-17H58.22l16-3.62V30.79L58.56,27.2Z"/>
</g>
</svg>