<?xml version="1.0" ?><!-- Uploaded to: SVG Repo, www.svgrepo.com, Generator: SVG Repo Mixer Tools -->
<svg fill="#000000" width="800px" height="800px" viewBox="0 0 32 32" id="template" xmlns="http://www.w3.org/2000/svg"><title/><path d="M16,2.089C8.085,2.089,1.646,5.54,1.646,9.781a.346.346,0,0,0,.06.187,3.079,3.079,0,0,0,.613,1.709,3.135,3.135,0,0,0,4.392.6,3.078,3.078,0,0,0,.89-1.072,2.972,2.972,0,0,0,.291.471,3.133,3.133,0,0,0,4.391.6,3.048,3.048,0,0,0,.866-1.041,3.085,3.085,0,0,0,2.347,1.65c.05.007.1.006.15.01V29.2H12.115a.355.355,0,0,0,0,.709h7.77a.355.355,0,0,0,0-.709H16.354V12.882A3.087,3.087,0,0,0,18.7,11.206a3.018,3.018,0,0,0,.291.471,3.1,3.1,0,0,0,5.356-.661,3.055,3.055,0,0,0,.372.661A3.115,3.115,0,0,0,30.33,9.9a.349.349,0,0,0,.024-.122C30.354,5.54,23.915,2.089,16,2.089ZM6.283,11.713a2.428,2.428,0,0,1-3.4-.464,2.37,2.37,0,0,1-.459-1.113H7.206A2.389,2.389,0,0,1,6.283,11.713Zm1.188-4.2c-.011.03-.017.062-.028.092a7.006,7.006,0,0,0-.21.757c-.019.09-.032.182-.048.273-.036.206-.063.414-.079.625,0,.055-.018.108-.021.163H2.372c.281-2.863,3.946-5.277,8.985-6.213-.046.025-.087.055-.133.08-.2.11-.391.226-.579.348-.077.05-.156.1-.231.149a9.068,9.068,0,0,0-.733.564c-.02.017-.037.037-.057.055a8.115,8.115,0,0,0-.593.579c-.065.07-.124.143-.186.214-.137.159-.268.322-.391.49-.06.082-.118.164-.175.247-.12.178-.229.361-.332.548-.041.074-.085.145-.123.22A6.9,6.9,0,0,0,7.471,7.517Zm4.384,4.2a2.429,2.429,0,0,1-3.4-.464A2.38,2.38,0,0,1,8,10.136h4.779A2.41,2.41,0,0,1,11.855,11.713ZM13.4,5.482c-.013.049-.024.1-.037.152-.051.207-.1.421-.142.642-.016.079-.031.158-.045.239q-.062.343-.11.706c-.008.054-.016.1-.023.159-.037.3-.066.6-.089.913-.005.074-.008.15-.013.225q-.023.367-.032.749c0,.028,0,.055,0,.084-.02.02-.023.051-.037.076H7.805c0-.068.006-.136.012-.2.009-.09.018-.179.03-.268.019-.137.045-.272.073-.406.017-.081.032-.162.052-.241.039-.155.088-.308.139-.459.019-.055.033-.111.053-.166a6.218,6.218,0,0,1,.259-.6c.023-.046.05-.089.074-.134.078-.149.159-.3.249-.44.042-.066.088-.13.132-.195.08-.119.163-.237.251-.351.052-.067.106-.133.161-.2.09-.109.183-.215.28-.318.058-.063.118-.126.179-.187.1-.1.212-.2.322-.3.061-.054.121-.109.183-.161.13-.108.265-.211.4-.312.05-.036.1-.074.147-.11q.289-.2.6-.38c.024-.014.049-.025.073-.039.183-.1.37-.2.563-.29.069-.033.141-.061.211-.092.151-.067.3-.131.461-.189.084-.032.17-.06.256-.089.149-.051.3-.1.452-.141.091-.026.183-.051.275-.074.156-.039.314-.072.473-.1.092-.018.183-.037.276-.052l.118-.016c-.007.009-.013.021-.021.03a4.62,4.62,0,0,0-.311.451c-.015.026-.03.057-.045.083q-.125.219-.24.466c-.026.057-.052.115-.077.174q-.1.24-.2.5c-.018.05-.036.1-.053.147C13.538,4.993,13.466,5.232,13.4,5.482Zm3.987,6.231a2.423,2.423,0,0,1-3.866-1.577H18.31A2.391,2.391,0,0,1,17.388,11.713ZM13.616,9.427c0-.074,0-.148,0-.221,0-.11.007-.219.012-.326.006-.136.014-.27.023-.4.007-.1.014-.2.023-.3.011-.132.024-.262.038-.39.01-.1.021-.192.032-.286.016-.126.034-.248.052-.37.013-.091.027-.182.041-.27.02-.119.042-.234.064-.349.016-.085.032-.17.05-.253.024-.111.049-.219.074-.325.019-.08.038-.161.058-.238.027-.1.055-.2.083-.295.022-.076.044-.153.067-.226.028-.091.059-.177.089-.264.025-.07.049-.143.074-.21.032-.083.064-.159.1-.237s.053-.13.081-.19.066-.139.1-.206.057-.118.087-.172.069-.118.1-.176.061-.1.092-.149.073-.1.109-.149.061-.084.093-.121.076-.082.114-.121.062-.067.093-.094.082-.063.122-.092.059-.047.088-.064a.832.832,0,0,1,.14-.064.643.643,0,0,1,.071-.032.685.685,0,0,1,.42,0,.643.643,0,0,1,.071.032.832.832,0,0,1,.14.064c.029.017.058.043.088.064s.081.056.122.092.062.063.093.095.077.075.114.119.063.082.094.124.073.094.108.147.061.1.092.149.07.114.1.176.058.114.087.172.068.133.1.206.054.126.081.19.064.154.1.237c.025.067.049.14.074.21.03.087.061.173.089.264.023.073.045.15.067.226.028.1.056.193.083.295.02.077.039.158.058.238.025.106.05.214.074.325.018.083.034.169.05.254.022.114.044.228.063.346.015.09.029.183.043.275.018.12.035.242.051.367.011.094.022.19.032.286.014.128.027.258.038.39.009.1.016.2.023.3.009.132.017.266.023.4.005.107.008.216.012.326,0,.073,0,.147,0,.221Zm9.344,2.286a2.428,2.428,0,0,1-3.4-.464,2.359,2.359,0,0,1-.459-1.113h4.78A2.391,2.391,0,0,1,22.96,11.713ZM19.1,9.427c0-.055-.006-.106-.007-.16q-.009-.381-.032-.749c0-.075-.008-.151-.013-.225-.023-.312-.052-.617-.089-.913-.007-.054-.015-.1-.023-.159q-.048-.363-.11-.706c-.014-.081-.029-.16-.045-.239-.043-.221-.091-.435-.142-.642-.013-.05-.024-.1-.037-.152-.065-.25-.137-.489-.214-.716-.017-.051-.035-.1-.053-.147q-.095-.262-.2-.5c-.025-.059-.051-.117-.077-.174q-.115-.248-.24-.466c-.015-.026-.03-.057-.045-.083a4.62,4.62,0,0,0-.311-.451c-.008-.009-.014-.021-.021-.03l.118.016c.093.015.184.034.276.052.159.031.317.064.473.1.092.023.184.048.275.074.153.043.3.09.452.141.086.029.172.057.256.089.157.058.31.122.461.189.07.031.142.059.211.092.193.09.38.188.563.29.024.014.049.025.073.039q.309.178.6.38c.05.036.1.074.147.11.138.1.273.2.4.312.062.052.122.107.183.161.11.1.218.2.322.3.061.061.121.124.179.187.1.1.19.209.28.318.055.065.109.131.161.2.088.114.171.232.251.351.044.065.09.129.132.195.09.144.171.291.249.44.024.045.051.088.074.134a6.218,6.218,0,0,1,.259.6c.02.055.034.111.053.166.051.151.1.3.139.459.02.079.035.16.052.241.028.134.054.269.073.406.012.089.021.178.03.268.006.068.008.136.012.2Zm9.591,2.286a2.429,2.429,0,0,1-3.4-.464,2.38,2.38,0,0,1-.459-1.113h4.78A2.39,2.39,0,0,1,28.688,11.713ZM24.915,9.427c0-.055-.016-.108-.021-.163-.016-.211-.043-.419-.079-.625-.016-.091-.029-.183-.048-.273a7.006,7.006,0,0,0-.21-.757c-.011-.03-.017-.062-.028-.092a6.9,6.9,0,0,0-.353-.809c-.038-.075-.082-.146-.123-.22-.1-.187-.212-.37-.332-.548-.057-.083-.115-.165-.175-.247-.123-.168-.254-.331-.391-.49-.062-.071-.121-.144-.186-.214a8.115,8.115,0,0,0-.593-.579c-.02-.018-.037-.038-.057-.055a9.068,9.068,0,0,0-.733-.564c-.075-.052-.154-.1-.231-.149-.188-.122-.38-.238-.579-.348-.046-.025-.087-.055-.133-.08,5.039.936,8.7,3.35,8.985,6.213Z"/></svg>