<?xml version="1.0" encoding="iso-8859-1"?>
<!-- Uploaded to: SVG Repo, www.svgrepo.com, Generator: SVG Repo Mixer Tools -->
<!DOCTYPE svg PUBLIC "-//W3C//DTD SVG 1.1//EN" "http://www.w3.org/Graphics/SVG/1.1/DTD/svg11.dtd">
<svg fill="#000000" version="1.1" id="Capa_1" xmlns="http://www.w3.org/2000/svg" xmlns:xlink="http://www.w3.org/1999/xlink" 
	 width="800px" height="800px" viewBox="0 0 342.91 342.91"
	 xml:space="preserve">
<g>
	<g>
		<path d="M319.684,168.228h-41.121l-14.075-96.969h9.007c12.803,0,23.221-10.409,23.221-23.211
			c0-12.808-10.418-23.217-23.221-23.217H69.41c-12.802,0-23.211,10.409-23.211,23.217c0,12.802,10.409,23.211,23.211,23.211h15.156
			l-16.792,96.969H23.218C10.418,168.228,0,178.643,0,191.445c0,12.802,10.418,23.22,23.218,23.22h36.521l-13.21,76.237
			c-2.177,12.634,6.317,24.668,18.843,26.812c1.357,0.252,2.706,0.366,4.057,0.366c11.328,0,20.933-8.095,22.869-19.252
			l14.564-84.169h131.505l12.148,83.539c1.65,11.331,11.522,19.882,22.968,19.882c1.117,0,2.233-0.084,3.351-0.24
			c12.677-1.85,21.485-13.655,19.636-26.319l-11.157-76.861h34.384c12.803,0,23.215-10.418,23.215-23.221
			C342.91,178.637,332.485,168.228,319.684,168.228z M319.684,204.68h-45.937l12.826,88.288c1.045,7.229-3.963,13.938-11.182,14.988
			c-0.648,0.096-1.278,0.132-1.921,0.132c-6.461,0-12.124-4.744-13.066-11.325l-13.379-92.083H98.446l-16.012,92.443
			c-1.114,6.426-6.71,10.965-13.012,10.965c-0.757,0-1.514-0.048-2.27-0.192c-7.2-1.243-12.019-8.088-10.785-15.282L71.61,204.68
			H23.212c-7.305,0-13.22-5.927-13.22-13.229c0-7.303,5.915-13.223,13.22-13.223h52.974l20.26-116.956H69.41
			c-7.305,0-13.22-5.927-13.22-13.22c0-7.305,5.915-13.226,13.22-13.226h42.28c0.069,0,0.135,0,0.21,0h161.595
			c7.296,0,13.217,5.927,13.217,13.226s-5.927,13.22-13.217,13.22h-20.572l16.981,116.956h49.786c7.308,0,13.217,5.92,13.217,13.223
			C332.906,198.753,326.997,204.68,319.684,204.68z"/>
		<path d="M123.293,61.267l-20.269,116.962h140.158L226.188,61.267H123.293z M114.905,168.228l16.787-96.969h85.845l14.081,96.969
			H114.905z"/>
	</g>
</g>
</svg>