<?xml version="1.0" ?>
<!-- Uploaded to: SVG Repo, www.svgrepo.com, Generator: SVG Repo Mixer Tools -->
<svg fill="#000000" width="800px" height="800px" viewBox="0 0 100 100" version="1.1" xml:space="preserve" xmlns="http://www.w3.org/2000/svg" xmlns:xlink="http://www.w3.org/1999/xlink">
<g id="hairdryer">
<g>
<path d="M11,33H5c-0.6,0-1,0.4-1,1s0.4,1,1,1h6c0.6,0,1-0.4,1-1S11.6,33,11,33z"/>
<path d="M10.3,28.7c0.2,0.2,0.5,0.3,0.7,0.3c0.2,0,0.5-0.1,0.7-0.3c0.4-0.4,0.4-1,0-1.4l-3.8-4c-0.4-0.4-1-0.4-1.4,0    c-0.4,0.4-0.4,1,0,1.4L10.3,28.7z"/>
<path d="M10.3,39.3l-4,4c-0.4,0.4-0.4,1,0,1.4C6.5,44.9,6.7,45,7,45s0.5-0.1,0.7-0.3l4-4c0.4-0.4,0.4-1,0-1.4S10.7,38.9,10.3,39.3    z"/>
<path d="M89.3,47.5c4.1-3.1,6.7-8,6.7-13.5c0-9.4-7.6-17-17-17h-9.1c-4.7,0-9.4,1.2-13.5,3.4c-3.1,1.7-6.5,2.8-10.1,3.1L20.1,26    l-5.8-1.9C14,24,13.7,24,13.4,24.2C13.2,24.4,13,24.7,13,25v18c0,0.3,0.2,0.6,0.4,0.8c0.2,0.1,0.4,0.2,0.6,0.2    c0.1,0,0.2,0,0.3-0.1l5.8-1.9l26.2,2.5c3.6,0.3,7,1.4,10.1,3.1c3.5,1.9,7.5,3.1,11.5,3.4l0.2,1.1c-0.8,0.1-1.5,0.5-2,1.1    c-0.6,0.7-0.8,1.6-0.6,2.5l1.2,6c0.3,1.4,1.5,2.4,3,2.4h0.8l3.2,16.6C74,82,75.2,83,76.6,83h15.9c0.9,0,1.7-0.4,2.3-1.1    c0.6-0.7,0.8-1.6,0.6-2.5L89.3,47.5z M92.2,73h-9.6c-0.5,0-0.9-0.3-1-0.8l-2.3-12c-0.1-0.4,0.1-0.7,0.2-0.8S80,59,80.4,59h9.1    L92.2,73z M15,26.4l4,1.3v12.6l-4,1.3V26.4z M46.5,42.5L21,40.1V27.9l25.5-2.4c3.8-0.4,7.5-1.5,10.9-3.3c3.8-2.1,8.2-3.2,12.5-3.2    H79c8.3,0,15,6.7,15,15s-6.7,15-15,15h-9.1c-4.4,0-8.7-1.1-12.5-3.2C54,44,50.4,42.8,46.5,42.5z M69.7,62c-0.5,0-0.9-0.3-1-0.8    l-1.2-6c-0.1-0.3,0-0.6,0.2-0.9c0.2-0.2,0.5-0.4,0.8-0.4h0l1.6,8H69.7z M93.3,80.6c-0.2,0.2-0.5,0.4-0.8,0.4H76.6    c-0.5,0-0.9-0.3-1-0.8L70,51h9c3.1,0,6-0.8,8.5-2.3l1.6,8.3h-8.7c-0.9,0-1.7,0.4-2.3,1.1c-0.6,0.7-0.8,1.6-0.6,2.5l2.3,12    C80,74,81.2,75,82.7,75h10l0.9,4.8C93.6,80.1,93.5,80.4,93.3,80.6z"/>
<path d="M79,45c6.1,0,11-4.9,11-11s-4.9-11-11-11s-11,4.9-11,11S72.9,45,79,45z M79,43c-2.7,0-5-1.2-6.7-3h13.4    C84,41.8,81.7,43,79,43z M70.1,35h17.9c-0.1,1.1-0.4,2.1-0.9,3c0,0,0,0,0,0H71c0,0,0,0,0,0C70.5,37.1,70.2,36.1,70.1,35z M71,30    C71,30,71,30,71,30l16,0c0,0,0,0,0,0c0.5,0.9,0.8,1.9,0.9,3H70.1C70.2,31.9,70.5,30.9,71,30z M79,25c2.7,0,5,1.2,6.7,3H72.3    C74,26.2,76.3,25,79,25z"/>
</g>
</g>
<g id="scissor"/>
<g id="razor"/>
<g id="razor_blade_1_"/>
<g id="comb"/>
<g id="shaving_machine"/>
<g id="barbershop"/>
<g id="barber_pole"/>
<g id="hairstylist"/>
<g id="kids"/>
<g id="mature"/>
<g id="woman"/>
<g id="moustache"/>
<g id="hair_gel"/>
<g id="shampoo"/>
<g id="mirror"/>
<g id="spray"/>
<g id="apron"/>
<g id="chair"/>
<g id="mask"/>
</svg>