<?xml version="1.0" ?>
<!-- Uploaded to: SVG Repo, www.svgrepo.com, Generator: SVG Repo Mixer Tools -->
<svg fill="#000000" width="800px" height="800px" viewBox="0 0 100 100" version="1.1" xml:space="preserve" xmlns="http://www.w3.org/2000/svg" xmlns:xlink="http://www.w3.org/1999/xlink">
<g id="hairdryer"/>
<g id="scissor"/>
<g id="razor"/>
<g id="razor_blade_1_"/>
<g id="comb"/>
<g id="shaving_machine"/>
<g id="barbershop"/>
<g id="barber_pole"/>
<g id="hairstylist"/>
<g id="kids"/>
<g id="mature"/>
<g id="woman"/>
<g id="moustache"/>
<g id="hair_gel"/>
<g id="shampoo">
<g>
<path d="M66,24h-1v-1c0-2.8-2.2-5-5-5V8c0-2.2-1.8-4-4-4H44c-2.2,0-4,1.8-4,4v10c-2.8,0-5,2.2-5,5v1h-1c-2.8,0-5,2.2-5,5v62    c0,2.8,2.2,5,5,5h32c2.8,0,5-2.2,5-5V29C71,26.2,68.8,24,66,24z M44,6h12c1.1,0,2,0.9,2,2v5h-3.1c-0.5-2.3-2.5-4-4.9-4    s-4.4,1.7-4.9,4H42V8C42,6.9,42.9,6,44,6z M52.8,13h-5.6c0.4-1.2,1.5-2,2.8-2S52.4,11.8,52.8,13z M42,15h16v3H42V15z M37,23    c0-1.7,1.3-3,3-3h1h18h1c1.7,0,3,1.3,3,3v1H37V23z M69,91c0,1.7-1.3,3-3,3H34c-1.7,0-3-1.3-3-3V29c0-1.7,1.3-3,3-3h2h28h2    c1.7,0,3,1.3,3,3V91z"/>
<path d="M60,31H40c-2.8,0-5,2.2-5,5v48c0,2.8,2.2,5,5,5h20c2.8,0,5-2.2,5-5V36C65,33.2,62.8,31,60,31z M63,84c0,1.7-1.3,3-3,3H40    c-1.7,0-3-1.3-3-3V36c0-1.7,1.3-3,3-3h20c1.7,0,3,1.3,3,3V84z"/>
</g>
</g>
<g id="mirror"/>
<g id="spray"/>
<g id="apron"/>
<g id="chair"/>
<g id="mask"/>
</svg>