<?xml version="1.0" encoding="iso-8859-1"?>
<!-- Uploaded to: SVG Repo, www.svgrepo.com, Generator: SVG Repo Mixer Tools -->
<svg fill="#000000" height="800px" width="800px" version="1.1" id="Layer_1" xmlns="http://www.w3.org/2000/svg" xmlns:xlink="http://www.w3.org/1999/xlink" 
	 viewBox="0 0 512 512" xml:space="preserve">
<g>
	<g>
		<g>
			<path d="M238.934,34.137H102.401v119.467h136.533V34.137z M221.868,136.537h-102.4V51.203h102.4V136.537z"/>
			<path d="M238.934,170.67H102.401v119.467h136.533V170.67z M221.868,273.07h-102.4v-85.333h102.4V273.07z"/>
			<path d="M238.934,307.203H102.401V426.67h136.533V307.203z M221.868,409.603h-102.4V324.27h102.4V409.603z"/>
			<path d="M170.668,93.867c4.713,0,8.533-3.82,8.533-8.533V76.8c0-4.713-3.82-8.533-8.533-8.533s-8.533,3.821-8.533,8.533v8.533
				C162.134,90.046,165.955,93.867,170.668,93.867z"/>
			<path d="M145.068,119.467h8.533c4.713,0,8.533-3.82,8.533-8.533s-3.821-8.533-8.533-8.533h-8.533
				c-4.713,0-8.533,3.82-8.533,8.533S140.355,119.467,145.068,119.467z"/>
			<path d="M187.734,119.467h8.533c4.713,0,8.533-3.82,8.533-8.533s-3.82-8.533-8.533-8.533h-8.533c-4.713,0-8.533,3.82-8.533,8.533
				S183.021,119.467,187.734,119.467z"/>
			<path d="M170.668,230.4c4.713,0,8.533-3.82,8.533-8.533v-8.533c0-4.713-3.82-8.533-8.533-8.533s-8.533,3.82-8.533,8.533v8.533
				C162.134,226.58,165.955,230.4,170.668,230.4z"/>
			<path d="M145.068,256h8.533c4.713,0,8.533-3.82,8.533-8.533s-3.821-8.533-8.533-8.533h-8.533c-4.713,0-8.533,3.82-8.533,8.533
				S140.355,256,145.068,256z"/>
			<path d="M187.734,256h8.533c4.713,0,8.533-3.82,8.533-8.533s-3.82-8.533-8.533-8.533h-8.533c-4.713,0-8.533,3.82-8.533,8.533
				S183.021,256,187.734,256z"/>
			<path d="M170.668,366.933c4.713,0,8.533-3.821,8.533-8.533v-8.533c0-4.713-3.82-8.533-8.533-8.533s-8.533,3.82-8.533,8.533v8.533
				C162.134,363.113,165.955,366.933,170.668,366.933z"/>
			<path d="M145.068,392.533h8.533c4.713,0,8.533-3.82,8.533-8.533s-3.821-8.533-8.533-8.533h-8.533
				c-4.713,0-8.533,3.82-8.533,8.533S140.355,392.533,145.068,392.533z"/>
			<path d="M187.734,392.533h8.533c4.713,0,8.533-3.82,8.533-8.533s-3.82-8.533-8.533-8.533h-8.533c-4.713,0-8.533,3.82-8.533,8.533
				S183.021,392.533,187.734,392.533z"/>
			<path d="M443.734,136.533c0-14.134-11.466-25.6-25.6-25.6h-8.533v-25.6c0-4.713-3.821-8.533-8.533-8.533
				c-4.713,0-8.533,3.82-8.533,8.533v25.6h-17.067v-51.2c0-4.713-3.82-8.533-8.533-8.533s-8.533,3.82-8.533,8.533v51.2h-17.067
				v-25.6c0-4.713-3.821-8.533-8.533-8.533s-8.533,3.82-8.533,8.533v25.6h-8.533c-14.134,0-25.6,11.466-25.6,25.6
				c0,11.447,7.523,21.143,17.891,24.416l9.236,76.406c0.618,9.578,5.632,18.066,12.981,22.913l2.692,30.613
				c0.387,4.406,4.077,7.786,8.501,7.786h16.966v167.433c0,15.735-13.467,28.834-29.594,28.834H208.035
				c-15.929,0-28.834-12.905-28.834-28.834V460.8h68.325c14.134,0,25.6-11.466,25.6-25.6V25.6c0-14.134-11.466-25.6-25.6-25.6
				H93.866c-14.134,0-25.6,11.466-25.6,25.6v409.6c0,14.134,11.466,25.6,25.6,25.6h68.268v5.299
				c0,25.355,20.546,45.901,45.901,45.901h120.772c25.448,0,46.66-20.633,46.66-45.901V298.667h17.065c4.423,0,8.113-3.38,8.5-7.786
				l2.5-28.432c9.512-4.129,16.297-13.961,17.056-25.561l5.569-76.045C436.363,157.473,443.734,147.863,443.734,136.533z
				 M85.332,435.2V25.6c0-4.708,3.825-8.533,8.533-8.533h153.66c4.708,0,8.533,3.825,8.533,8.533v409.6
				c0,4.708-3.825,8.533-8.533,8.533H93.866C89.158,443.733,85.332,439.908,85.332,435.2z M384.717,281.6h-35.466l-1.501-17.067
				h38.467L384.717,281.6z M403.563,235.707c-0.397,6.063-4.009,10.561-8.285,11.551c-0.26,0.009-0.52,0.02-0.783,0.052
				c-0.427,0.057-0.427,0.057-0.735,0.102c-0.334,0.049-44.961,0.054-49.144,0.054h-0.314c-0.226,0-0.45-0.021-0.674-0.041
				c-0.673-0.077-1.411-0.268-2.236-0.585c-0.174-0.067-0.349-0.108-0.524-0.163c-3.514-1.637-6.279-5.701-6.619-10.904
				l-8.891-73.641h83.593L403.563,235.707z M418.134,145.067h-0.002H315.734c-4.708,0-8.533-3.825-8.533-8.533
				c0-4.708,3.825-8.533,8.533-8.533h102.4c4.708,0,8.533,3.825,8.533,8.533C426.668,141.241,422.842,145.067,418.134,145.067z"/>
		</g>
	</g>
</g>
</svg>