<!-- Uploaded to: SVG Repo, www.svgrepo.com, Transformed by: SVG Repo Mixer Tools -->
<svg width="800px" height="800px" viewBox="0 -21.5 188.045 188.045" xmlns="http://www.w3.org/2000/svg">
  <g id="Group_3287" data-name="Group 3287" transform="translate(-677.96 -366.368)">
    <line id="Line_73" data-name="Line 73" y1="141.173" x2="93.237" transform="translate(691.752 367.746)" fill="none" stroke="#000000" stroke-linejoin="bevel" stroke-miterlimit="10" stroke-width="5"/>
    <line id="Line_74" data-name="Line 74" x2="93.237" y2="141.173" transform="translate(758.977 367.746)" fill="none" stroke="#000000" stroke-linejoin="bevel" stroke-miterlimit="10" stroke-width="5"/>
    <path id="Path_1724" data-name="Path 1724" d="M771.983,432.364l-46.324,32.918,9.769,43.637" fill="none" stroke="#000000" stroke-miterlimit="10" stroke-width="5"/>
    <path id="Path_1725" data-name="Path 1725" d="M691.752,508.919" fill="none" stroke="#000000" stroke-miterlimit="10" stroke-width="5"/>
    <path id="Path_1726" data-name="Path 1726" d="M680.114,489.18l11.058,18.755a2,2,0,0,0,1.723.984h41.272a2,2,0,0,0,1.8-1.138l36.012-75.417" fill="none" stroke="#000000" stroke-miterlimit="10" stroke-width="5"/>
    <path id="Path_1727" data-name="Path 1727" d="M771.983,389.8V506.919a2,2,0,0,0,2,2h77.088a2,2,0,0,0,1.723-.984l11.058-18.755" fill="none" stroke="#000000" stroke-miterlimit="10" stroke-width="5"/>
  </g>
</svg>