<?xml version="1.0" encoding="iso-8859-1"?>
<!-- Uploaded to: SVG Repo, www.svgrepo.com, Transformed by: SVG Repo Mixer Tools -->
<!DOCTYPE svg PUBLIC "-//W3C//DTD SVG 1.1//EN" "http://www.w3.org/Graphics/SVG/1.1/DTD/svg11.dtd">
<svg fill="#000000" height="800px" width="800px" version="1.1" id="Capa_1" xmlns="http://www.w3.org/2000/svg" xmlns:xlink="http://www.w3.org/1999/xlink" 
	 viewBox="0 0 214.331 214.331" xml:space="preserve">
<path d="M95.417,166.246c-8.851,0-16.195-6.57-17.412-15.09h-9.201c-1.217,8.52-8.562,15.09-17.412,15.09
	c-8.85,0-16.195-6.57-17.412-15.09H7.49c-4.13,0-7.49-3.36-7.49-7.49V88.59c0-22.335,18.171-40.506,40.506-40.506h133.547
	c6.588,0,11.948,5.36,11.948,11.948v86.124h25.829c1.381,0,2.5,1.119,2.5,2.5s-1.119,2.5-2.5,2.5h-99.002
	C111.612,159.676,104.267,166.246,95.417,166.246z M95.417,136.068c-6.942,0-12.589,5.647-12.589,12.589
	c0,6.942,5.647,12.59,12.589,12.59c6.941,0,12.589-5.647,12.589-12.59C108.006,141.715,102.358,136.068,95.417,136.068z
	 M51.392,136.068c-6.941,0-12.589,5.647-12.589,12.589c0,6.942,5.647,12.59,12.589,12.59c6.942,0,12.589-5.647,12.589-12.59
	C63.981,141.715,58.333,136.068,51.392,136.068z M172.267,146.156h8.735V60.032c0-3.831-3.117-6.948-6.948-6.948H40.506
	C20.928,53.084,5,69.012,5,88.59v55.076c0,1.373,1.117,2.49,2.49,2.49h26.49c1.217-8.52,8.562-15.089,17.412-15.089
	c8.851,0,16.195,6.569,17.412,15.089h9.201c1.217-8.52,8.562-15.089,17.412-15.089c8.85,0,16.195,6.569,17.412,15.089H172.267z
	 M164.025,136.068h-21.073c-4.788,0-8.683-3.895-8.683-8.683V71.969c0-4.788,3.895-8.683,8.683-8.683h21.073
	c4.788,0,8.683,3.895,8.683,8.683v55.416C172.708,132.173,168.813,136.068,164.025,136.068z M139.27,100.243v27.142
	c0,2.03,1.652,3.683,3.683,3.683h21.073c2.031,0,3.683-1.652,3.683-3.683v-27.142H139.27z M139.27,95.243h28.438V71.969
	c0-2.03-1.652-3.683-3.683-3.683h-21.073c-2.031,0-3.683,1.652-3.683,3.683V95.243z M126.253,88.837H21.25
	c-1.381,0-2.5-1.119-2.5-2.5v-0.884c0-12.223,9.944-22.167,22.167-22.167h85.337c1.381,0,2.5,1.119,2.5,2.5v20.551
	C128.753,87.718,127.634,88.837,126.253,88.837z M99.041,83.837h24.713V68.286H99.041V83.837z M60.204,83.837h33.836V68.286H60.204
	V83.837z M23.825,83.837h31.379V68.286H40.916C31.995,68.286,24.642,75.126,23.825,83.837z"/>
</svg>